<svg width="150" height="22" viewBox="0 0 150 22" fill="none" xmlns="http://www.w3.org/2000/svg">
<path d="M0.878906 2.32422C2.15495 2.36068 3.21224 2.38802 4.05078 2.40625C4.90755 2.40625 5.60026 2.40625 6.12891 2.40625H7.57812H15.7266C15.763 2.77083 15.7904 3.1263 15.8086 3.47266C15.8451 3.80078 15.8633 4.09245 15.8633 4.34766C15.8633 4.65755 15.8542 4.9401 15.8359 5.19531C15.8177 5.45052 15.7904 5.72396 15.7539 6.01562C15.7174 6.27083 15.681 6.54427 15.6445 6.83594C15.6081 7.1276 15.5443 7.42839 15.4531 7.73828C15.1979 6.75391 14.8516 6.00651 14.4141 5.49609C13.9948 4.98568 13.5664 4.61198 13.1289 4.375C12.6185 4.10156 12.0807 3.95573 11.5156 3.9375C10.7682 3.97396 10.1849 4.03776 9.76562 4.12891C9.34635 4.22005 9.01823 4.34766 8.78125 4.51172C8.54427 4.67578 8.36198 4.86719 8.23438 5.08594C8.125 5.28646 8.00651 5.51432 7.87891 5.76953C7.76953 5.98828 7.66927 6.32552 7.57812 6.78125C7.48698 7.16406 7.39583 7.68359 7.30469 8.33984C7.23177 8.99609 7.14974 9.84375 7.05859 10.8828C7.55078 10.737 7.94271 10.6003 8.23438 10.4727C8.54427 10.3451 8.79036 10.2357 8.97266 10.1445C9.17318 10.0352 9.31901 9.9349 9.41016 9.84375C9.48307 9.73438 9.59245 9.53385 9.73828 9.24219C9.84766 8.98698 9.99349 8.64062 10.1758 8.20312C10.3763 7.76562 10.6133 7.16406 10.8867 6.39844C10.9232 7.23698 10.9414 7.9388 10.9414 8.50391C10.9414 9.05078 10.9505 9.4974 10.9688 9.84375C10.9688 10.2448 10.9779 10.5638 10.9961 10.8008V11.8398C10.9961 12.2227 10.9961 12.7422 10.9961 13.3984C11.0143 14.0365 11.0417 14.8477 11.0781 15.832C10.8594 15.1576 10.6589 14.6289 10.4766 14.2461C10.3125 13.8451 10.1667 13.5443 10.0391 13.3438C9.89323 13.1068 9.76562 12.9427 9.65625 12.8516C9.52865 12.8151 9.35547 12.7786 9.13672 12.7422C8.9362 12.724 8.68099 12.7148 8.37109 12.7148C8.07943 12.7148 7.70573 12.7604 7.25 12.8516C7.19531 13.8542 7.1862 14.6654 7.22266 15.2852C7.27734 15.8867 7.35026 16.3516 7.44141 16.6797C7.53255 17.0625 7.64193 17.3359 7.76953 17.5C7.93359 17.6641 8.26172 17.8008 8.75391 17.9102C9.24609 18.0013 9.80208 18.0378 10.4219 18.0195C11.0599 17.9831 11.707 17.8737 12.3633 17.6914C13.0195 17.5091 13.6029 17.2083 14.1133 16.7891C14.4961 16.4427 14.9062 16.0052 15.3438 15.4766C15.7083 15.0208 16.1094 14.4466 16.5469 13.7539C17.0026 13.0612 17.4492 12.2227 17.8867 11.2383C17.8138 12.0586 17.7591 12.7422 17.7227 13.2891C17.7044 13.8177 17.6771 14.2461 17.6406 14.5742C17.6042 14.957 17.5768 15.2487 17.5586 15.4492C17.5586 15.668 17.5312 15.9779 17.4766 16.3789C17.4401 16.7253 17.3763 17.1992 17.2852 17.8008C17.2122 18.3841 17.112 19.1315 16.9844 20.043C16.1276 20.0612 15.3164 20.0794 14.5508 20.0977C13.7852 20.0977 13.1107 20.1068 12.5273 20.125C11.8346 20.1432 11.1966 20.1615 10.6133 20.1797C10.0117 20.1797 9.34635 20.207 8.61719 20.2617C7.97917 20.2982 7.22266 20.3529 6.34766 20.4258C5.49089 20.4987 4.54297 20.599 3.50391 20.7266C3.59505 19.487 3.65885 18.3203 3.69531 17.2266C3.75 16.1146 3.78646 15.1393 3.80469 14.3008C3.82292 13.3164 3.82292 12.4049 3.80469 11.5664C3.89583 9.47005 3.85938 7.77474 3.69531 6.48047C3.53125 5.1862 3.33984 4.35677 3.12109 3.99219C3.01172 3.86458 2.85677 3.70964 2.65625 3.52734C2.49219 3.38151 2.26432 3.20833 1.97266 3.00781C1.68099 2.80729 1.31641 2.57943 0.878906 2.32422ZM18.7344 1.17578C19.263 1.26693 19.7279 1.33073 20.1289 1.36719C20.5482 1.40365 20.8945 1.43099 21.168 1.44922C21.4961 1.46745 21.7786 1.47656 22.0156 1.47656C22.2526 1.47656 22.5898 1.45833 23.0273 1.42188C23.3919 1.38542 23.8659 1.33984 24.4492 1.28516C25.0508 1.23047 25.7891 1.13932 26.6641 1.01172C26.4089 1.08464 26.1719 1.29427 25.9531 1.64062C25.7526 1.96875 25.5703 2.32422 25.4062 2.70703C25.2057 3.16276 25.0326 3.66406 24.8867 4.21094C24.7591 4.70312 24.5951 5.3776 24.3945 6.23438C24.2122 7.09115 24.0299 8.02083 23.8477 9.02344C23.6836 10.026 23.556 11.0469 23.4648 12.0859C23.3737 13.1068 23.3555 14.0456 23.4102 14.9023C23.4831 15.7591 23.6562 16.4701 23.9297 17.0352C24.2031 17.582 24.6224 17.8737 25.1875 17.9102C26.0443 17.9831 26.7552 17.9922 27.3203 17.9375C27.9036 17.8646 28.3776 17.7643 28.7422 17.6367C29.1068 17.5091 29.3893 17.3633 29.5898 17.1992C29.7904 17.0169 29.9453 16.8438 30.0547 16.6797C30.3464 16.2604 30.6471 15.7227 30.957 15.0664C31.2669 14.4102 31.5404 13.7812 31.7773 13.1797C32.0326 12.5781 32.2422 12.0677 32.4062 11.6484C32.5703 11.2292 32.6523 11.0286 32.6523 11.0469C32.6523 11.0833 32.6432 11.293 32.625 11.6758C32.625 12.0404 32.6159 12.487 32.5977 13.0156C32.5977 13.526 32.5885 14.0638 32.5703 14.6289C32.5703 15.194 32.5612 15.6771 32.543 16.0781C32.5247 16.4062 32.5065 16.7708 32.4883 17.1719C32.4701 17.5182 32.4518 17.9284 32.4336 18.4023C32.4336 18.8763 32.4154 19.3958 32.3789 19.9609C31.6133 19.9062 30.8841 19.8698 30.1914 19.8516C29.4987 19.8333 28.888 19.8242 28.3594 19.8242C27.7396 19.8242 27.1654 19.8333 26.6367 19.8516C26.0716 19.8698 25.4154 19.8971 24.668 19.9336C24.0299 19.9701 23.237 20.0156 22.2891 20.0703C21.3411 20.1068 20.2474 20.1615 19.0078 20.2344C19.1536 19.9792 19.2721 19.7422 19.3633 19.5234C19.4727 19.3047 19.5547 19.1224 19.6094 18.9766C19.6823 18.7943 19.7279 18.6393 19.7461 18.5117C19.8555 17.9284 19.9466 17.1901 20.0195 16.2969C20.0924 15.3854 20.1471 14.4193 20.1836 13.3984C20.2383 12.3776 20.2656 11.3385 20.2656 10.2812C20.2839 9.20573 20.2839 8.21224 20.2656 7.30078C20.2474 6.38932 20.2109 5.59635 20.1562 4.92188C20.1198 4.2474 20.0651 3.78255 19.9922 3.52734C19.901 3.23568 19.7917 2.94401 19.6641 2.65234C19.5547 2.39714 19.418 2.14193 19.2539 1.88672C19.1081 1.61328 18.9349 1.3763 18.7344 1.17578ZM37.6562 2.48828C38.5677 2.54297 39.3333 2.58854 39.9531 2.625C40.5911 2.64323 41.1198 2.66146 41.5391 2.67969C42.013 2.69792 42.4141 2.69792 42.7422 2.67969C43.0703 2.66146 43.5169 2.61589 44.082 2.54297C44.556 2.48828 45.1849 2.40625 45.9688 2.29688C46.7708 2.16927 47.7643 2.00521 48.9492 1.80469C48.5299 2.22396 48.2018 2.60677 47.9648 2.95312C47.7461 3.28125 47.5729 3.5638 47.4453 3.80078C47.2995 4.09245 47.1992 4.33854 47.1445 4.53906C47.1081 4.72135 47.1445 5.17708 47.2539 5.90625C47.3633 6.63542 47.5182 7.5013 47.7188 8.50391C47.9193 9.48828 48.138 10.5456 48.375 11.6758C48.612 12.7878 48.849 13.8359 49.0859 14.8203C49.3229 15.7865 49.5326 16.6159 49.7148 17.3086C49.9154 17.9831 50.0612 18.3841 50.1523 18.5117C50.4258 18.8945 50.599 19.1497 50.6719 19.2773C50.7448 19.3867 50.8724 19.487 51.0547 19.5781C51.1276 19.6146 51.2461 19.6693 51.4102 19.7422C51.556 19.8151 51.7474 19.9062 51.9844 20.0156C52.2396 20.125 52.5586 20.2526 52.9414 20.3984C52.2305 20.4349 51.6198 20.4622 51.1094 20.4805C50.599 20.4805 50.1797 20.4896 49.8516 20.5078C49.4688 20.526 49.1406 20.5443 48.8672 20.5625C48.5938 20.5625 48.2656 20.5807 47.8828 20.6172C47.5547 20.6536 47.1263 20.6901 46.5977 20.7266C46.0872 20.763 45.4857 20.7995 44.793 20.8359C45.1576 20.5807 45.4492 20.3529 45.668 20.1523C45.9049 19.9336 46.0872 19.7513 46.2148 19.6055C46.3607 19.4232 46.4609 19.2591 46.5156 19.1133C46.5521 18.9492 46.5794 18.7031 46.5977 18.375C46.6159 18.0833 46.6159 17.7005 46.5977 17.2266C46.5794 16.7344 46.5339 16.0964 46.4609 15.3125L39.2695 16.0508C39.0872 16.3607 38.9505 16.6341 38.8594 16.8711C38.7682 17.0898 38.7044 17.2812 38.668 17.4453C38.6133 17.6458 38.5951 17.8099 38.6133 17.9375C38.6497 18.0833 38.7135 18.2565 38.8047 18.457C38.8958 18.6393 39.0234 18.8581 39.1875 19.1133C39.3698 19.3503 39.6341 19.6328 39.9805 19.9609C39.5247 19.9427 39.0599 19.9336 38.5859 19.9336C38.112 19.9336 37.6745 19.9427 37.2734 19.9609C36.7995 19.9792 36.3346 19.9974 35.8789 20.0156C35.4232 20.0339 34.9036 20.0612 34.3203 20.0977C33.8281 20.1341 33.2539 20.1797 32.5977 20.2344C31.9232 20.2708 31.2031 20.3255 30.4375 20.3984C30.9115 20.1797 31.3125 19.9609 31.6406 19.7422C31.9688 19.5052 32.2422 19.2865 32.4609 19.0859C32.7161 18.8672 32.9349 18.6576 33.1172 18.457C33.2448 18.2747 33.5 17.8555 33.8828 17.1992C34.2656 16.5247 34.694 15.7318 35.168 14.8203C35.6602 13.9089 36.1706 12.9336 36.6992 11.8945C37.2461 10.8555 37.7383 9.88021 38.1758 8.96875C38.6133 8.03906 38.9688 7.23698 39.2422 6.5625C39.5156 5.88802 39.6523 5.45052 39.6523 5.25C39.6159 5.01302 39.5247 4.7487 39.3789 4.45703C39.2513 4.20182 39.0508 3.91016 38.7773 3.58203C38.5221 3.25391 38.1484 2.88932 37.6562 2.48828ZM46.1328 13.2891C46.0234 12.651 45.9232 12.1042 45.832 11.6484C45.7409 11.1745 45.668 10.7826 45.6133 10.4727C45.5404 10.1081 45.4857 9.78906 45.4492 9.51562C45.3945 9.26042 45.3307 8.93229 45.2578 8.53125C45.1849 8.1849 45.0938 7.75651 44.9844 7.24609C44.8932 6.71745 44.7747 6.08854 44.6289 5.35938C43.5898 7.4375 42.7786 9.05078 42.1953 10.1992C41.6302 11.3294 41.2201 12.1589 40.9648 12.6875C40.6549 13.3073 40.4818 13.6719 40.4453 13.7812L46.1328 13.2891ZM51.3828 1.61328C52.2031 1.75911 52.8776 1.85938 53.4062 1.91406C53.9349 1.96875 54.3633 2.01432 54.6914 2.05078C55.0742 2.08724 55.375 2.09635 55.5938 2.07812H56.4141C56.7057 2.07812 57.0703 2.07812 57.5078 2.07812C57.9635 2.0599 58.5286 2.05078 59.2031 2.05078C59.5859 2.94401 59.9323 3.76432 60.2422 4.51172C60.5703 5.25911 60.8438 5.89714 61.0625 6.42578C61.3177 7.0638 61.5547 7.63802 61.7734 8.14844C62.0286 8.78646 62.3021 9.48828 62.5938 10.2539C62.8854 11.0195 63.1497 11.7396 63.3867 12.4141C63.6419 13.0885 63.8516 13.6445 64.0156 14.082C64.1797 14.5195 64.2617 14.7201 64.2617 14.6836C64.2617 14.6654 64.2708 14.4831 64.2891 14.1367C64.3073 13.7721 64.3255 13.3255 64.3438 12.7969C64.362 12.25 64.3802 11.6576 64.3984 11.0195C64.4349 10.3633 64.4531 9.73438 64.4531 9.13281C64.4714 8.51302 64.4805 7.94792 64.4805 7.4375C64.4805 6.92708 64.4622 6.54427 64.4258 6.28906C64.3711 5.97917 64.2617 5.6237 64.0977 5.22266C63.9518 4.8763 63.7513 4.46615 63.4961 3.99219C63.2409 3.5 62.8854 2.94401 62.4297 2.32422C63.1771 2.34245 63.7878 2.35156 64.2617 2.35156C64.7357 2.35156 65.1185 2.35156 65.4102 2.35156C65.7383 2.35156 65.9935 2.34245 66.1758 2.32422C66.4128 2.32422 66.7044 2.30599 67.0508 2.26953C67.3607 2.23307 67.7435 2.20573 68.1992 2.1875C68.6732 2.15104 69.2565 2.10547 69.9492 2.05078C69.5482 2.41536 69.2292 2.76172 68.9922 3.08984C68.7552 3.41797 68.5638 3.70964 68.418 3.96484C68.2539 4.25651 68.1445 4.52995 68.0898 4.78516C68.0169 5.11328 67.9531 5.65104 67.8984 6.39844C67.862 7.1276 67.8164 7.94792 67.7617 8.85938C67.7253 9.77083 67.6888 10.7188 67.6523 11.7031C67.6159 12.6875 67.5794 13.5898 67.543 14.4102C67.543 15.0299 67.5247 15.6953 67.4883 16.4062C67.4518 17.0078 67.4154 17.6914 67.3789 18.457C67.3424 19.2044 67.2969 19.9609 67.2422 20.7266L64.8086 20.7812C64.0977 19.5234 63.4961 18.4479 63.0039 17.5547C62.5299 16.6432 62.138 15.8958 61.8281 15.3125C61.4818 14.638 61.1901 14.0729 60.9531 13.6172C60.7526 13.1797 60.4883 12.6784 60.1602 12.1133C59.8867 11.6393 59.5404 11.056 59.1211 10.3633C58.7201 9.67057 58.237 8.8776 57.6719 7.98438C57.6172 9.24219 57.5898 10.3177 57.5898 11.2109C57.6081 12.0859 57.6354 12.8151 57.6719 13.3984C57.7266 14.0729 57.7904 14.638 57.8633 15.0938C57.9544 15.5312 58.082 16.0234 58.2461 16.5703C58.3919 17.0443 58.5651 17.6003 58.7656 18.2383C58.9844 18.8763 59.2487 19.5964 59.5586 20.3984C58.4831 20.3438 57.681 20.3164 57.1523 20.3164H56.332C56.0768 20.3164 55.7305 20.3438 55.293 20.3984C54.9284 20.4349 54.4271 20.4896 53.7891 20.5625C53.1693 20.6354 52.3945 20.7357 51.4648 20.8633C51.9023 20.3346 52.2487 19.8516 52.5039 19.4141C52.7773 18.9583 52.987 18.5755 53.1328 18.2656C53.3151 17.901 53.4427 17.582 53.5156 17.3086C53.5703 17.0169 53.6068 16.5156 53.625 15.8047C53.6432 15.0755 53.6432 14.2552 53.625 13.3438C53.625 12.4141 53.6068 11.4388 53.5703 10.418C53.5521 9.39714 53.5247 8.44922 53.4883 7.57422C53.4518 6.69922 53.4062 5.95182 53.3516 5.33203C53.3151 4.71224 53.2878 4.32943 53.2695 4.18359C53.2148 3.94661 53.1055 3.69141 52.9414 3.41797C52.7956 3.18099 52.6042 2.91667 52.3672 2.625C52.1302 2.3151 51.8021 1.97786 51.3828 1.61328ZM96.2266 0.984375C95.9714 1.56771 95.7435 2.07812 95.543 2.51562C95.3424 2.95312 95.1693 3.32682 95.0234 3.63672C94.8594 3.98307 94.7227 4.29297 94.6133 4.56641C94.5221 4.76693 94.4036 5.04036 94.2578 5.38672C94.112 5.69661 93.9297 6.10677 93.7109 6.61719C93.5104 7.10938 93.2461 7.7474 92.918 8.53125C92.7539 7.85677 92.5534 7.26432 92.3164 6.75391C92.0794 6.24349 91.8242 5.79688 91.5508 5.41406C91.2773 5.03125 90.9857 4.72135 90.6758 4.48438C90.3841 4.22917 90.0924 4.01953 89.8008 3.85547C89.1263 3.49089 88.4154 3.29036 87.668 3.25391C86.6836 3.30859 85.9089 3.47266 85.3438 3.74609C84.7969 4.0013 84.3958 4.30208 84.1406 4.64844C83.8854 4.97656 83.7487 5.32292 83.7305 5.6875C83.7122 6.03385 83.7578 6.32552 83.8672 6.5625C83.9583 6.78125 84.2773 7.03646 84.8242 7.32812C85.3893 7.61979 86.0638 7.95703 86.8477 8.33984C87.6497 8.70443 88.5065 9.1237 89.418 9.59766C90.3294 10.0534 91.168 10.5638 91.9336 11.1289C92.7174 11.6758 93.3737 12.2773 93.9023 12.9336C94.4492 13.5716 94.75 14.2552 94.8047 14.9844C94.8594 15.9141 94.8503 16.7526 94.7773 17.5C94.7044 18.2474 94.4492 18.8854 94.0117 19.4141C93.5742 19.9427 92.8906 20.362 91.9609 20.6719C91.0495 20.9818 89.7826 21.1732 88.1602 21.2461C86.4831 21.319 85.1068 21.2279 84.0312 20.9727C82.9557 20.7174 82.0807 20.3711 81.4062 19.9336C80.75 19.4961 80.2578 19.013 79.9297 18.4844C79.6198 17.9557 79.3919 17.4544 79.2461 16.9805C79.1003 16.4883 79 16.069 78.9453 15.7227C78.8906 15.3581 78.7995 15.1393 78.6719 15.0664C78.526 14.9753 78.3802 14.8932 78.2344 14.8203C78.1068 14.7474 77.9701 14.6836 77.8242 14.6289C77.6784 14.556 77.5326 14.4922 77.3867 14.4375L85.3438 13.1523C84.888 13.5169 84.5326 13.8542 84.2773 14.1641C84.0404 14.474 83.8581 14.7474 83.7305 14.9844C83.5846 15.2578 83.4844 15.513 83.4297 15.75C83.3932 16.0052 83.4753 16.3242 83.6758 16.707C83.8763 17.0898 84.1497 17.4635 84.4961 17.8281C84.8607 18.1745 85.2799 18.4661 85.7539 18.7031C86.2279 18.9401 86.7201 19.0404 87.2305 19.0039C87.8685 18.9492 88.388 18.7943 88.7891 18.5391C89.1901 18.2656 89.4909 17.9284 89.6914 17.5273C89.9102 17.1263 90.0378 16.6888 90.0742 16.2148C90.1107 15.7409 90.0651 15.276 89.9375 14.8203C89.8281 14.3464 89.6458 13.9089 89.3906 13.5078C89.1354 13.0885 88.8346 12.7422 88.4883 12.4688C88.1784 12.25 87.6953 12.0404 87.0391 11.8398C86.401 11.6393 85.681 11.4206 84.8789 11.1836C84.0951 10.9466 83.2839 10.6732 82.4453 10.3633C81.625 10.0534 80.8776 9.67057 80.2031 9.21484C79.5469 8.75911 79.0182 8.22135 78.6172 7.60156C78.2344 6.98177 78.0885 6.23438 78.1797 5.35938C78.2526 4.61198 78.4896 3.99219 78.8906 3.5C79.3099 2.98958 79.8294 2.58854 80.4492 2.29688C81.0872 1.98698 81.7891 1.75911 82.5547 1.61328C83.3385 1.46745 84.1315 1.38542 84.9336 1.36719C85.7539 1.33073 86.556 1.33984 87.3398 1.39453C88.1419 1.44922 88.862 1.51302 89.5 1.58594C90.138 1.65885 90.6758 1.73177 91.1133 1.80469C91.569 1.85938 91.8516 1.89583 91.9609 1.91406C92.4349 1.95052 92.9089 1.94141 93.3828 1.88672C93.8021 1.85026 94.2578 1.76823 94.75 1.64062C95.2604 1.49479 95.7526 1.27604 96.2266 0.984375ZM95.2422 1.58594C95.8802 1.65885 96.418 1.71354 96.8555 1.75C97.293 1.76823 97.6393 1.78646 97.8945 1.80469C98.2044 1.82292 98.4505 1.83203 98.6328 1.83203C98.9427 1.83203 99.2982 1.82292 99.6992 1.80469C100.046 1.78646 100.447 1.75911 100.902 1.72266C101.376 1.66797 101.887 1.58594 102.434 1.47656C102.178 1.75 101.969 2.01432 101.805 2.26953C101.641 2.50651 101.513 2.72526 101.422 2.92578C101.312 3.14453 101.221 3.34505 101.148 3.52734C101.076 3.76432 100.993 4.12891 100.902 4.62109C100.811 5.04036 100.711 5.63281 100.602 6.39844C100.51 7.16406 100.392 8.16667 100.246 9.40625C100.866 9.42448 101.404 9.43359 101.859 9.43359C102.315 9.41536 102.698 9.40625 103.008 9.40625H103.91C104.165 9.38802 104.457 9.36979 104.785 9.35156C105.332 9.33333 106.161 9.27865 107.273 9.1875C107.365 8.34896 107.41 7.62891 107.41 7.02734C107.428 6.40755 107.419 5.88802 107.383 5.46875C107.346 4.99479 107.292 4.59375 107.219 4.26562C107.164 4.08333 107.082 3.86458 106.973 3.60938C106.882 3.39062 106.754 3.1263 106.59 2.81641C106.444 2.48828 106.243 2.09635 105.988 1.64062C106.462 1.71354 106.882 1.76823 107.246 1.80469C107.629 1.82292 107.948 1.84115 108.203 1.85938C108.495 1.8776 108.741 1.88672 108.941 1.88672C109.142 1.88672 109.406 1.8776 109.734 1.85938C110.008 1.84115 110.345 1.83203 110.746 1.83203C111.147 1.8138 111.639 1.78646 112.223 1.75C112.077 2.00521 111.949 2.26953 111.84 2.54297C111.73 2.81641 111.639 3.0625 111.566 3.28125C111.493 3.53646 111.421 3.79167 111.348 4.04688C111.257 4.42969 111.174 4.98568 111.102 5.71484C111.047 6.44401 110.992 7.25521 110.938 8.14844C110.901 9.04167 110.865 9.97135 110.828 10.9375C110.81 11.9036 110.792 12.8151 110.773 13.6719C110.773 14.5286 110.783 15.2943 110.801 15.9688C110.819 16.625 110.855 17.0898 110.91 17.3633C110.965 17.6914 111.056 18.0286 111.184 18.375C111.293 18.6849 111.439 19.0221 111.621 19.3867C111.803 19.7331 112.04 20.0612 112.332 20.3711L105.742 20.8633C106.016 20.6081 106.234 20.362 106.398 20.125C106.562 19.8698 106.69 19.651 106.781 19.4688C106.872 19.2682 106.936 19.0768 106.973 18.8945C106.991 18.6758 107.018 18.293 107.055 17.7461C107.091 17.2904 107.128 16.6432 107.164 15.8047C107.201 14.9661 107.237 13.8542 107.273 12.4688C107.018 12.4688 106.708 12.4779 106.344 12.4961C105.997 12.4961 105.669 12.5052 105.359 12.5234C104.995 12.5417 104.612 12.5508 104.211 12.5508C103.81 12.569 103.391 12.5872 102.953 12.6055C102.589 12.6419 102.178 12.6784 101.723 12.7148C101.285 12.7331 100.848 12.7604 100.41 12.7969C100.374 13.5625 100.374 14.237 100.41 14.8203C100.447 15.3854 100.501 15.8685 100.574 16.2695C100.647 16.7435 100.738 17.1536 100.848 17.5C100.957 17.8281 101.076 18.1562 101.203 18.4844C101.312 18.776 101.44 19.0859 101.586 19.4141C101.75 19.7422 101.914 20.0339 102.078 20.2891C101.732 20.2526 101.413 20.2253 101.121 20.207C100.829 20.1706 100.574 20.1341 100.355 20.0977C100.1 20.0794 99.8542 20.0612 99.6172 20.043C99.3802 20.043 99.0977 20.0339 98.7695 20.0156C98.4779 19.9974 98.1133 19.9883 97.6758 19.9883C97.2383 19.9701 96.7279 19.9609 96.1445 19.9609C96.4909 19.6146 96.7643 19.2773 96.9648 18.9492C97.1836 18.6029 97.3385 18.293 97.4297 18.0195C97.5391 17.6914 97.612 17.3906 97.6484 17.1172C97.6667 16.8802 97.6758 16.4336 97.6758 15.7773C97.694 15.1211 97.694 14.3737 97.6758 13.5352C97.6758 12.6784 97.6667 11.7852 97.6484 10.8555C97.6302 9.90755 97.6029 9.02344 97.5664 8.20312C97.5482 7.38281 97.5208 6.68099 97.4844 6.09766C97.4661 5.49609 97.4479 5.1224 97.4297 4.97656C97.3385 4.64844 97.2018 4.29297 97.0195 3.91016C96.8555 3.60026 96.6367 3.24479 96.3633 2.84375C96.0898 2.42448 95.7161 2.00521 95.2422 1.58594ZM122.859 0.382812C123.844 0.419271 124.837 0.601562 125.84 0.929688C126.861 1.23958 127.799 1.75 128.656 2.46094C129.513 3.15365 130.242 4.05599 130.844 5.16797C131.445 6.26172 131.819 7.60156 131.965 9.1875C132.092 10.4818 131.928 11.7669 131.473 13.043C131.035 14.3008 130.424 15.4583 129.641 16.5156C128.857 17.5729 127.954 18.4753 126.934 19.2227C125.913 19.9518 124.892 20.4349 123.871 20.6719C123.251 20.8177 122.568 20.8359 121.82 20.7266C121.091 20.599 120.344 20.3711 119.578 20.043C118.831 19.6966 118.092 19.2591 117.363 18.7305C116.652 18.2018 116.005 17.6003 115.422 16.9258C114.839 16.2331 114.346 15.4857 113.945 14.6836C113.562 13.8815 113.326 13.043 113.234 12.168C113.143 11.4388 113.134 10.6367 113.207 9.76172C113.298 8.86849 113.471 7.98438 113.727 7.10938C114 6.21615 114.374 5.35938 114.848 4.53906C115.34 3.70052 115.96 2.97135 116.707 2.35156C117.454 1.71354 118.329 1.22135 119.332 0.875C120.353 0.510417 121.529 0.346354 122.859 0.382812ZM117.965 11.457C117.71 13.4076 117.892 14.9753 118.512 16.1602C119.15 17.3451 120.107 18.0651 121.383 18.3203C122.003 18.4479 122.595 18.3203 123.16 17.9375C123.743 17.5365 124.272 16.9622 124.746 16.2148C125.22 15.4674 125.63 14.5924 125.977 13.5898C126.323 12.5872 126.578 11.5391 126.742 10.4453C126.906 9.35156 126.915 8.36719 126.77 7.49219C126.642 6.59896 126.414 5.84245 126.086 5.22266C125.758 4.58464 125.357 4.09245 124.883 3.74609C124.427 3.39974 123.953 3.20833 123.461 3.17188C122.604 3.11719 121.857 3.34505 121.219 3.85547C120.581 4.34766 120.043 4.99479 119.605 5.79688C119.168 6.59896 118.812 7.5013 118.539 8.50391C118.284 9.50651 118.092 10.4909 117.965 11.457ZM131.582 1.42188C132.275 1.58594 132.895 1.71354 133.441 1.80469C134.007 1.8776 134.48 1.93229 134.863 1.96875C135.319 2.02344 135.72 2.04167 136.066 2.02344C136.504 2.00521 137.051 1.94141 137.707 1.83203C138.363 1.72266 139.056 1.61328 139.785 1.50391C140.514 1.39453 141.234 1.30339 141.945 1.23047C142.656 1.15755 143.276 1.14844 143.805 1.20312C144.333 1.25781 144.889 1.38542 145.473 1.58594C146.056 1.76823 146.603 2.02344 147.113 2.35156C147.624 2.66146 148.061 3.04427 148.426 3.5C148.809 3.95573 149.046 4.48438 149.137 5.08594C149.228 5.66927 149.173 6.29818 148.973 6.97266C148.772 7.62891 148.453 8.27604 148.016 8.91406C147.578 9.53385 147.031 10.1081 146.375 10.6367C145.719 11.1654 144.99 11.5938 144.188 11.9219C143.549 12.1589 142.857 12.3411 142.109 12.4688C141.471 12.5781 140.724 12.651 139.867 12.6875C139.029 12.7057 138.135 12.6146 137.188 12.4141C137.06 12.9427 136.987 13.4349 136.969 13.8906C136.969 14.3281 136.987 14.7201 137.023 15.0664C137.078 15.4674 137.151 15.832 137.242 16.1602C137.352 16.4883 137.488 16.8711 137.652 17.3086C137.798 17.6732 137.962 18.1198 138.145 18.6484C138.345 19.1589 138.582 19.7331 138.855 20.3711C138.527 20.3711 138.208 20.3802 137.898 20.3984C137.589 20.3984 137.306 20.4076 137.051 20.4258C136.759 20.444 136.486 20.4622 136.23 20.4805C135.939 20.4987 135.611 20.5352 135.246 20.5898C134.936 20.6263 134.544 20.681 134.07 20.7539C133.615 20.8268 133.095 20.918 132.512 21.0273C132.895 20.4805 133.195 19.9792 133.414 19.5234C133.651 19.0495 133.824 18.6393 133.934 18.293C134.061 17.8919 134.143 17.5273 134.18 17.1992C134.198 16.9258 134.198 16.4427 134.18 15.75C134.18 15.0573 134.171 14.2552 134.152 13.3438C134.134 12.4323 134.107 11.4753 134.07 10.4727C134.034 9.47005 133.988 8.53125 133.934 7.65625C133.879 6.76302 133.815 5.9974 133.742 5.35938C133.688 4.72135 133.633 4.30208 133.578 4.10156C133.505 3.86458 133.378 3.60938 133.195 3.33594C133.049 3.09896 132.84 2.82552 132.566 2.51562C132.311 2.1875 131.983 1.82292 131.582 1.42188ZM137.242 6.80859C137.224 6.99089 137.215 7.18229 137.215 7.38281C137.215 7.76562 137.242 8.25781 137.297 8.85938C137.424 9.16927 137.579 9.42448 137.762 9.625C137.962 9.82552 138.172 9.98047 138.391 10.0898C138.628 10.1992 138.865 10.2721 139.102 10.3086C139.339 10.3451 139.576 10.3633 139.812 10.3633C140.359 10.3451 140.934 10.2174 141.535 9.98047C142.337 9.63411 142.902 9.14193 143.23 8.50391C143.559 7.86589 143.732 7.20964 143.75 6.53516C143.768 5.86068 143.65 5.24089 143.395 4.67578C143.158 4.11068 142.866 3.72786 142.52 3.52734C142.228 3.39974 141.854 3.34505 141.398 3.36328C140.997 3.38151 140.496 3.48177 139.895 3.66406C139.293 3.84635 138.555 4.17448 137.68 4.64844C137.589 4.97656 137.516 5.26823 137.461 5.52344C137.406 5.77865 137.361 6.00651 137.324 6.20703C137.288 6.42578 137.26 6.6263 137.242 6.80859Z" fill="black"/>
</svg>
